<?xml version="1.0" standalone="no"?>
<!DOCTYPE svg PUBLIC "-//W3C//DTD SVG 20010904//EN"
 "http://www.w3.org/TR/2001/REC-SVG-20010904/DTD/svg10.dtd">
<svg version="1.0" xmlns="http://www.w3.org/2000/svg"
 width="1280.000000pt" height="1280.000000pt" viewBox="0 0 1280.000000 1280.000000"
 preserveAspectRatio="xMidYMid meet">
<metadata>
Created by potrace 1.15, written by Peter Selinger 2001-2017
</metadata>
<g transform="translate(0.000000,1280.000000) scale(0.100000,-0.100000)"
fill="#000000" stroke="none">
<path d="M6115 12089 c-1441 -73 -2799 -688 -3800 -1721 -1394 -1438 -1929
-3476 -1424 -5418 212 -816 628 -1607 1190 -2265 132 -154 449 -471 604 -604
576 -493 1236 -864 1955 -1099 575 -187 1137 -275 1760 -275 623 0 1185 88
1760 275 719 235 1379 606 1955 1099 154 132 472 450 604 604 747 872 1211
1935 1340 3070 124 1086 -66 2179 -549 3160 -864 1755 -2568 2944 -4510 3150
-299 31 -584 39 -885 24z"/>
</g>
</svg>
