<svg width="1024" height="609" xmlns="http://www.w3.org/2000/svg" preserveAspectRatio="xMidYMid meet" version="1.0">
 <metadata>Created by potrace 1.10, written by Peter Selinger 2001-2011</metadata>

 <g>
  <title>Layer 1</title>
  <g id="svg_1" fill="#000" transform="translate(0 1024) scale(0.1 -0.1)">
   <path id="svg_2" d="m9177,10206c-10,-15 -29,-25 -54,-29c-53,-9 -80,-31 -87,-71c-4,-19 -13,-48 -21,-63c-8,-15 -15,-31 -15,-35c0,-5 25,-8 56,-8c33,0 53,-4 49,-10c-10,-15 -75,-23 -109,-13c-21,7 -38,6 -51,-1c-45,-24 -165,-104 -235,-157c-41,-31 -86,-62 -100,-69c-14,-7 -47,-37 -73,-66c-27,-30 -57,-54 -68,-54c-12,0 -19,-7 -19,-19c0,-32 -52,-134 -87,-171c-18,-19 -36,-43 -39,-53c-7,-22 22,-57 47,-57c10,0 39,-10 64,-22c35,-17 45,-27 45,-46c0,-15 -5,-22 -12,-19c-7,3 -32,-6 -54,-19c-35,-20 -44,-21 -59,-10c-13,9 -15,15 -7,20c19,11 14,43 -7,49c-25,6 -61,-19 -61,-41c0,-9 7,-26 15,-36c24,-32 18,-74 -13,-104c-16,-15 -37,-40 -48,-56c-10,-16 -27,-40 -37,-55c-12,-19 -16,-36 -11,-63c5,-35 4,-38 -23,-43c-15,-4 -38,-11 -51,-16c-34,-13 -40,-11 -44,13c-5,33 -62,49 -113,31c-83,-29 -110,-55 -145,-145c-18,-46 -42,-93 -53,-105c-21,-24 -47,-31 -47,-13c0,16 -58,12 -92,-6c-65,-33 -107,-37 -77,-7c15,15 3,33 -21,33c-10,0 -47,-19 -82,-43c-35,-24 -100,-60 -146,-82c-45,-21 -87,-44 -93,-52c-6,-7 -22,-13 -34,-13c-13,0 -26,-7 -29,-16c-9,-22 -8,-24 9,-24c21,0 19,-14 -9,-47c-18,-21 -21,-33 -15,-51c7,-19 12,-21 28,-12c25,13 31,13 31,-2c0,-7 11,-26 24,-42l23,-30l-27,-15c-101,-59 -137,-87 -152,-123c-14,-32 -21,-38 -47,-38c-16,0 -33,5 -36,10c-8,13 -45,13 -45,0c0,-5 6,-27 14,-47c8,-21 17,-50 20,-65c3,-14 9,-33 12,-42c5,-13 -1,-16 -35,-16c-34,0 -49,7 -85,40c-24,22 -51,40 -61,40c-17,0 -17,11 0,52c5,13 1,19 -18,23c-13,4 -39,26 -57,51c-46,60 -87,73 -142,44c-28,-15 -53,-20 -74,-17c-38,6 -50,0 -64,-37c-8,-23 -7,-32 5,-46c43,-48 -24,-100 -130,-100c-48,0 -54,2 -57,23c-2,13 -9,21 -18,18c-8,-1 -38,-6 -66,-10c-28,-4 -64,-17 -81,-29c-36,-26 -59,-28 -71,-7c-7,14 -11,13 -27,-5c-21,-24 -48,-26 -65,-5c-17,21 -23,19 -43,-14c-22,-38 -21,-44 3,-38c30,8 25,-17 -11,-47c-17,-14 -51,-38 -75,-52c-26,-15 -47,-36 -50,-49c-6,-24 -34,-43 -34,-23c0,18 52,128 61,128c18,0 47,44 59,88c7,26 23,58 35,72c43,47 80,132 79,180c0,37 -9,57 -45,108c-34,49 -48,62 -63,58c-11,-3 -24,1 -30,9c-16,22 -119,-18 -135,-51c-10,-23 -31,-31 -44,-18c-3,4 1,20 9,35c13,26 13,30 -1,35c-8,4 -37,3 -63,-1l-47,-7l28,29c15,16 27,32 27,36c0,10 -67,26 -88,21c-31,-9 -72,-86 -72,-136c0,-24 5,-49 12,-56c9,-9 1,-12 -36,-12c-46,0 -48,-1 -42,-25c5,-21 0,-29 -33,-51c-49,-32 -66,-29 -46,9c17,32 7,34 -44,8c-20,-11 -49,-22 -64,-26c-21,-4 -27,-10 -22,-23c4,-14 -6,-23 -48,-40c-29,-12 -56,-22 -60,-22c-4,0 -33,-20 -66,-45c-32,-25 -65,-45 -72,-45c-7,0 -20,-7 -30,-16c-14,-12 -16,-22 -9,-40c5,-13 7,-31 4,-39c-4,-9 2,-25 11,-35c10,-11 16,-21 14,-23c-2,-2 -26,-13 -54,-25c-55,-25 -85,-28 -161,-17c-49,7 -52,6 -60,-16c-4,-13 -8,-35 -9,-49c-1,-14 -6,-41 -10,-61c-6,-31 -3,-41 22,-70c15,-19 38,-48 49,-64l21,-31l-34,4c-27,3 -40,13 -58,42c-13,21 -38,48 -55,60c-29,21 -35,22 -73,9c-55,-17 -54,-15 -26,-38l24,-20l-22,-1c-13,0 -23,5 -23,11c0,6 -12,9 -27,7c-20,-2 -29,-9 -31,-25c-4,-26 25,-73 44,-73c16,0 54,-57 54,-80c0,-8 -12,2 -26,22c-18,25 -36,38 -59,42c-18,4 -38,13 -45,21c-14,16 -6,68 16,102c21,33 18,142 -4,171c-16,20 -20,21 -30,9c-10,-11 -9,-17 3,-27c17,-14 20,-66 6,-103c-6,-16 -21,-28 -39,-32c-16,-3 -40,-17 -52,-30c-22,-23 -23,-28 -12,-76c17,-73 15,-113 -7,-133c-10,-9 -26,-35 -37,-57c-14,-33 -16,-44 -6,-60c9,-15 10,-25 1,-40c-9,-17 -8,-25 4,-36c12,-13 21,-13 51,-3c31,10 39,9 63,-8c46,-33 60,-55 66,-104c5,-36 3,-47 -9,-52c-23,-9 -24,-8 -24,24c0,16 -8,45 -17,65c-15,32 -21,35 -58,35c-57,0 -78,-24 -83,-100c-4,-50 -7,-59 -26,-64c-16,-4 -27,-19 -37,-53c-12,-39 -22,-50 -59,-70c-25,-13 -47,-28 -48,-33c-5,-15 -39,-12 -72,5c-34,18 -39,35 -11,35c32,0 51,11 51,31c0,10 19,31 44,48c54,37 86,76 86,104c0,11 10,32 23,45l22,24l-22,18c-28,23 -29,54 -3,120c11,28 20,62 20,76c0,14 9,42 20,64c22,43 26,100 9,131c-9,17 -3,32 30,89c51,86 53,120 9,152c-18,13 -48,28 -66,35l-34,11l-38,-61c-59,-93 -76,-113 -127,-143c-27,-15 -51,-32 -55,-38c-13,-18 -9,-34 9,-38c15,-3 15,-4 0,-19c-9,-9 -19,-30 -23,-45c-4,-16 -18,-40 -32,-53l-26,-23l35,-29c27,-22 33,-33 31,-58c-2,-17 5,-44 15,-61l18,-31l-33,-30c-32,-29 -35,-29 -48,-12c-7,10 -14,31 -14,47c0,18 -10,41 -26,57c-28,30 -34,38 -77,118c-20,38 -38,57 -65,69c-51,23 -92,57 -92,75c0,9 -5,19 -11,23c-6,3 -9,14 -6,24c3,11 -6,29 -23,45l-28,27l-21,-21c-27,-27 -26,-47 5,-92c21,-31 25,-46 22,-95l-3,-59l-37,-3c-27,-2 -39,-9 -44,-24c-4,-14 -9,-17 -16,-10c-8,8 -6,19 6,36c25,39 21,56 -13,56c-16,0 -41,-4 -54,-9c-19,-7 -35,-4 -73,15c-36,18 -58,23 -81,19c-18,-3 -41,-1 -52,5c-18,9 -18,12 -5,39c8,16 24,32 37,35c54,15 -13,22 -166,19c-89,-2 -177,-4 -196,-3c-26,0 -43,-8 -67,-31l-32,-31l-39,18c-36,18 -38,21 -35,64c4,73 5,74 72,67l60,-7l0,46c0,54 -16,87 -64,133l-36,35l0,-45c0,-53 -18,-83 -68,-108c-35,-18 -37,-22 -37,-67c0,-44 -3,-50 -35,-71c-19,-12 -41,-27 -48,-33c-9,-8 -12,-4 -12,19c0,17 -10,45 -23,64c-21,32 -24,33 -52,21c-17,-7 -64,-13 -106,-14l-76,0l-26,-53c-15,-29 -27,-58 -27,-65c0,-19 -39,8 -46,33c-4,11 -12,27 -19,35c-7,8 -15,32 -18,53c-7,46 -22,67 -48,67c-27,0 -42,-37 -36,-90c6,-53 -2,-74 -29,-68c-57,11 -76,155 -29,224c13,20 27,43 30,52c3,9 20,26 38,37c33,21 47,59 29,77c-7,7 -5,22 4,44c8,18 14,46 14,61c0,15 4,33 8,40c4,6 7,-8 7,-30c1,-29 14,-69 43,-126c23,-46 42,-92 42,-102c0,-28 63,-85 116,-105c45,-17 50,-17 113,-1c73,20 81,27 81,77c0,20 7,45 15,57c14,20 14,28 -5,82c-11,33 -20,78 -20,99c0,22 -7,55 -14,74c-8,19 -12,45 -9,57c4,15 -1,28 -16,42c-11,11 -21,26 -21,35c0,8 -11,19 -24,25c-15,7 -26,23 -30,41c-9,48 -8,51 19,34c24,-16 25,-16 25,9c0,39 -17,64 -38,58c-10,-2 -24,3 -31,11c-8,9 -29,16 -51,16c-20,0 -51,5 -69,11c-42,15 -73,6 -110,-32c-22,-21 -31,-40 -31,-62c0,-18 -5,-49 -11,-69c-9,-36 -12,-38 -49,-38c-48,0 -105,-45 -115,-90c-7,-32 -41,-80 -56,-80c-17,0 -104,-42 -111,-54c-4,-6 -3,-15 2,-20c16,-16 11,-34 -11,-41c-16,-5 -19,-14 -17,-38c3,-31 2,-32 -42,-37l-45,-5l-17,-69c-9,-38 -23,-75 -31,-83c-17,-17 -158,-32 -301,-33c-98,0 -99,0 -81,-20c17,-19 17,-21 2,-38c-22,-24 -21,-34 4,-66c12,-15 18,-30 14,-34c-4,-4 -12,1 -19,11c-7,9 -16,17 -20,17c-3,0 -27,10 -51,21c-42,20 -47,20 -64,5c-9,-9 -28,-16 -40,-16c-23,0 -74,-34 -122,-82c-16,-16 -38,-28 -53,-28c-19,0 -29,-7 -37,-27c-27,-66 -35,-80 -70,-123c-30,-37 -35,-51 -31,-79c3,-21 11,-35 23,-38c17,-5 17,-8 5,-32c-14,-26 -13,-27 15,-40c25,-11 29,-18 29,-51c0,-30 -5,-40 -20,-45c-11,-3 -20,-15 -20,-25c0,-10 -10,-20 -23,-24c-23,-5 -47,-42 -47,-71c0,-8 -7,-35 -16,-61c-16,-46 -15,-48 6,-64c15,-12 19,-19 11,-24c-6,-4 -11,-16 -11,-28c0,-14 -5,-18 -16,-14c-9,3 -27,6 -40,6c-13,0 -24,6 -24,13c0,7 -6,22 -14,32c-12,16 -16,17 -30,6c-9,-7 -16,-20 -16,-28c0,-8 -13,-28 -30,-43c-21,-20 -30,-37 -30,-60c0,-30 2,-32 29,-27c24,5 35,0 65,-29c53,-52 57,-79 14,-119c-48,-43 -53,-65 -28,-108l21,-36l-25,-44c-26,-44 -26,-44 -6,-62c11,-10 20,-28 20,-40c0,-27 15,-41 53,-50c24,-6 27,-12 27,-50c0,-34 4,-44 20,-48c12,-3 20,-14 20,-25c0,-11 10,-33 23,-49c25,-30 52,-107 43,-122c-3,-5 -21,-12 -40,-15c-38,-7 -52,-20 -61,-57c-4,-15 -23,-37 -46,-52l-39,-26l-22,30c-24,32 -53,37 -107,18c-42,-15 -39,-39 9,-69c21,-13 38,-25 37,-26c-7,-7 -135,30 -149,43c-22,20 -53,9 -43,-15c4,-9 9,-33 12,-52c5,-33 5,-34 -12,-18c-16,15 -22,15 -59,2c-22,-8 -46,-22 -53,-31c-11,-14 -16,-12 -44,21c-18,20 -36,36 -39,36c-11,0 -30,-49 -30,-76c0,-21 53,-138 70,-154c11,-10 32,-116 31,-157c-1,-37 2,-44 28,-58c29,-15 59,-66 74,-127c4,-16 14,-28 23,-28c8,0 35,-20 60,-45c34,-35 44,-53 44,-78c0,-18 5,-38 10,-43c8,-8 6,-15 -5,-24c-24,-20 -18,-30 20,-30c27,0 46,-10 87,-47c62,-54 63,-56 43,-73c-22,-18 -19,-44 10,-78c19,-22 27,-46 31,-94c4,-34 14,-75 22,-90c15,-25 20,-27 57,-21c22,3 46,9 54,13c22,12 41,80 41,154c0,58 5,77 31,122c44,77 51,110 34,145c-8,15 -15,32 -15,36c0,5 30,17 66,27c36,11 79,30 95,43c26,23 28,23 38,5c7,-14 18,-17 45,-14c25,3 36,0 36,-8c0,-9 5,-8 18,3c11,10 26,14 41,10c23,-6 24,-4 18,36c-4,34 -2,41 9,37c21,-8 25,7 25,90c0,69 -3,80 -25,103c-23,24 -25,31 -16,60c6,22 6,40 0,52c-16,29 -12,39 23,54c45,20 70,45 86,83c11,27 19,33 37,29c16,-3 28,4 44,25c11,15 28,28 37,28c13,0 15,-9 9,-64c-5,-53 -4,-65 10,-70c27,-10 34,-7 55,29c16,26 28,35 48,35c15,0 31,4 37,10c5,5 41,14 79,21c116,18 118,18 136,-20c9,-19 19,-29 22,-23c12,18 49,0 69,-34c11,-18 27,-36 36,-39c27,-9 62,-96 55,-139c-6,-36 3,-46 24,-25c15,15 33,3 33,-21c0,-30 42,-53 74,-40c49,18 92,13 110,-15c17,-25 44,-32 62,-16c5,5 21,7 37,4c21,-4 25,-8 17,-18c-15,-18 -2,-64 21,-78c11,-7 19,-17 19,-24c0,-21 40,-26 55,-7c12,18 14,17 26,-8c24,-55 105,-50 131,7c15,35 15,36 -14,73c-60,74 -58,92 8,92c28,0 33,4 38,34c7,37 36,70 43,49c2,-7 21,-17 40,-24c32,-10 38,-9 50,6c11,16 9,21 -17,37c-33,19 -36,28 -18,46c9,9 8,12 -4,12c-22,0 -13,32 14,49c18,11 25,10 48,-7c42,-32 111,-41 416,-59c74,-4 104,-1 163,17c66,19 75,20 90,6c9,-8 33,-22 54,-31c45,-19 54,-48 36,-112c-11,-41 -11,-47 6,-59c12,-9 23,-10 36,-4c25,14 25,14 39,-20c10,-24 16,-28 26,-19c10,8 19,7 36,-5c12,-9 31,-16 42,-16c19,0 19,-1 -2,-16c-14,-10 -22,-24 -20,-37c3,-18 11,-21 60,-24c31,-2 60,1 63,7c3,5 16,10 29,10c12,0 26,3 29,6c5,6 103,42 115,44c1,0 -2,-9 -8,-19c-19,-36 -10,-60 37,-108c41,-42 54,-69 115,-228c38,-99 74,-184 79,-190c7,-7 17,-2 29,13c19,23 40,22 40,-2c0,-38 145,-88 164,-57c8,12 54,15 81,5c9,-4 27,-28 41,-55c13,-27 33,-55 44,-61c11,-7 20,-21 20,-30c0,-29 49,-53 106,-53c55,0 77,-12 100,-57c12,-23 21,-28 54,-28c32,0 39,4 42,22c2,19 13,24 66,34c61,10 82,24 82,52c0,11 134,82 157,82c5,0 18,9 27,19c10,10 33,22 52,26c20,3 42,9 50,12c8,3 14,-1 14,-11c0,-13 11,-16 56,-16c48,0 59,-4 76,-25c37,-47 66,-55 194,-51c102,3 122,7 141,24c26,24 31,73 8,92c-23,19 -29,75 -11,102c9,12 16,30 16,40c0,10 4,18 9,18c5,0 14,15 22,33c17,42 16,42 34,27c9,-7 37,-17 63,-22c26,-4 85,-18 132,-31l85,-24l14,-42c11,-36 21,-46 57,-62c59,-27 105,-27 141,-1c49,35 84,44 163,44c104,0 171,-11 195,-33c39,-35 73,-40 180,-26c86,12 104,17 127,40c15,15 36,27 47,27c11,0 29,13 40,29c12,16 32,32 46,35c16,4 25,13 25,26c0,11 11,26 23,35c13,8 29,26 35,40c6,13 23,31 37,41c23,15 27,15 50,0c29,-19 76,-21 93,-3c8,7 52,14 110,17c97,5 97,5 100,32c2,16 18,40 38,57c36,32 43,64 20,90c-11,13 -12,32 -4,96c18,162 20,193 8,215c-9,17 -17,20 -39,15c-38,-8 -46,15 -25,71c12,31 25,46 48,55c17,8 49,30 72,51c51,47 80,58 154,58c32,0 62,4 65,10c3,5 23,10 45,10c29,0 48,-8 80,-35c23,-19 46,-35 50,-35c4,0 37,-28 73,-62c35,-35 85,-81 111,-103c25,-22 46,-46 46,-52c0,-7 17,-21 39,-32c36,-19 39,-19 62,-3c13,9 45,24 70,32c42,14 51,14 88,1c33,-12 48,-13 71,-4c17,6 30,8 30,5c0,-4 17,-26 39,-50c33,-36 44,-42 79,-42c31,0 45,5 56,22c9,12 30,27 48,33c26,8 32,15 30,34c-1,13 9,36 24,54c15,18 33,46 40,64c16,36 54,64 54,39c0,-8 12,-24 26,-35c22,-17 25,-26 20,-52c-4,-23 3,-55 28,-118c31,-80 52,-169 47,-198c-1,-7 3,-22 9,-33c9,-16 6,-22 -15,-36c-14,-9 -40,-20 -58,-23c-24,-5 -35,-14 -42,-36c-5,-17 -18,-41 -28,-55c-17,-24 -17,-25 0,-35c43,-24 153,-157 153,-184c0,-12 -10,-40 -22,-61c-18,-31 -20,-42 -11,-51c10,-10 19,-7 43,16c26,25 30,36 32,94c2,54 6,66 21,69c10,2 24,-4 31,-14c11,-15 18,-15 64,-5c61,15 94,57 111,141c7,30 19,66 28,79c12,18 14,36 8,75c-3,28 -6,56 -5,61c1,6 4,95 7,198c4,171 2,194 -17,251c-11,34 -20,78 -20,97c0,89 -13,215 -25,229c-7,8 -16,26 -20,40c-17,53 -77,147 -122,191c-49,46 -87,123 -100,201l-5,36l67,-26c48,-19 71,-34 81,-54c8,-16 43,-57 79,-92c35,-35 80,-91 100,-124c22,-37 49,-69 73,-83c20,-13 41,-30 46,-38c5,-9 29,-37 53,-62c24,-25 43,-55 43,-66c0,-22 59,-73 84,-73c20,0 21,30 1,56c-20,27 -18,51 5,57c45,12 3,64 -72,89c-36,12 -98,65 -98,83c0,6 -13,29 -30,51c-58,77 -32,134 65,134l50,1l-45,18c-87,35 -198,98 -246,139c-27,23 -56,42 -65,42c-28,0 -92,56 -103,90c-8,24 -25,42 -61,63c-27,16 -71,47 -96,68c-45,37 -68,47 -82,33c-4,-4 14,-26 38,-49c46,-43 56,-65 30,-65c-32,0 -28,-31 8,-68c30,-32 67,-90 67,-107c0,-12 -38,-4 -44,10c-3,8 -17,20 -31,25c-18,7 -25,17 -25,35c0,24 -2,25 -64,25c-36,0 -68,5 -71,10c-11,18 -78,11 -112,-12c-36,-25 -41,-39 -17,-58c35,-30 35,-46 -1,-84c-18,-20 -36,-36 -39,-36c-3,0 -6,13 -6,29c0,27 -33,61 -60,61c-16,0 -11,-38 7,-48c10,-6 14,-16 10,-26c-11,-28 -33,-17 -56,29c-12,25 -25,45 -29,45c-4,0 -20,-14 -35,-30c-44,-47 -97,-52 -97,-11c0,10 10,56 21,102c17,66 22,122 24,261c2,97 8,185 13,194c7,12 5,31 -6,61c-13,34 -14,51 -6,82c6,22 7,46 3,53c-14,22 -10,70 10,113c23,51 126,145 158,145c28,0 42,28 22,42c-8,5 -10,11 -4,14c38,16 77,48 85,69c5,14 16,25 23,25c9,0 14,11 13,30c-1,16 -4,30 -8,30c-5,0 -8,6 -8,13c0,20 110,107 135,107c12,0 28,7 35,15c7,8 17,12 22,9c5,-3 0,-17 -13,-30c-26,-28 -19,-57 13,-52c15,2 24,13 30,36c5,18 15,35 23,39c10,3 15,20 15,48c0,38 3,44 23,47c12,2 21,8 21,13c-1,6 5,19 12,30c8,11 14,25 14,32c0,20 -47,15 -63,-7c-13,-19 -15,-19 -29,-3c-20,24 -48,117 -48,162c0,20 -7,45 -15,55c-8,11 -15,30 -15,42c0,12 -7,27 -15,34c-21,17 -18,70 5,100c11,14 20,37 20,53c0,20 5,27 20,27c16,0 20,7 20,30c0,17 3,30 8,30c4,0 28,-24 54,-52c42,-47 47,-50 48,-29c0,23 1,24 20,6c11,-10 23,-15 26,-12c4,3 -1,50 -10,103c-11,66 -13,101 -6,108c14,14 12,46 -2,41c-7,-2 -32,13 -56,35c-34,30 -42,44 -37,60c9,28 75,97 75,78c0,-9 -7,-21 -15,-28c-26,-21 -18,-54 15,-67c16,-6 38,-25 47,-42c10,-17 26,-31 36,-31c9,0 17,-7 17,-16c0,-9 8,-18 18,-21c17,-4 18,-13 14,-79c-4,-62 -2,-77 12,-87c11,-8 20,-35 25,-70c4,-32 13,-63 19,-69c7,-7 12,-25 12,-42c0,-16 9,-39 19,-50c11,-12 28,-54 39,-93c16,-61 17,-75 6,-84c-8,-7 -11,-21 -8,-35c4,-14 1,-31 -7,-40c-10,-13 -10,-17 2,-25c8,-5 19,-9 26,-9c11,0 36,-58 47,-112c15,-69 171,-195 326,-263c36,-16 80,-41 97,-57c22,-18 50,-30 83,-34c35,-5 64,-17 95,-41c47,-36 102,-60 112,-49c3,3 1,31 -6,61c-7,30 -9,59 -6,65c8,13 -35,87 -69,119c-23,21 -26,33 -26,88c0,43 4,63 13,63c6,1 3,6 -8,13c-82,48 -115,92 -115,151c0,26 6,38 21,46c16,9 19,17 14,38c-10,39 -24,52 -56,52c-16,0 -48,14 -74,32c-53,38 -60,72 -20,106c30,26 25,44 -18,64c-24,11 -36,12 -49,5c-23,-15 -85,15 -98,47c-5,13 -14,27 -20,31c-15,9 -40,-13 -40,-36c0,-22 -28,-25 -53,-6c-26,19 -87,110 -87,129c0,10 -11,24 -23,33c-48,31 -54,90 -13,124c15,12 15,16 2,30c-8,9 -18,36 -22,60c-7,43 -7,44 19,38c14,-4 32,-10 41,-13c21,-8 22,39 1,56c-18,15 -19,32 -4,101c14,65 37,89 87,89c51,0 56,7 27,44c-13,17 -27,45 -31,61c-4,17 -20,55 -35,86c-28,57 -42,127 -59,309c-4,47 -11,96 -14,110c-6,20 -1,32 24,55c35,34 38,55 9,81c-21,19 -62,23 -169,15c-25,-2 -55,0 -67,4c-20,6 -23,4 -23,-20c0,-23 -3,-26 -22,-21c-13,3 -29,6 -35,6c-18,0 -16,25 2,40c8,7 15,19 15,26c0,8 -7,14 -15,14c-11,0 -15,12 -15,46c0,39 -5,51 -32,76c-29,27 -36,29 -80,23l-48,-7l0,31c0,29 1,30 29,20c18,-6 42,-7 62,-1c31,8 34,12 34,48c1,60 22,84 71,84c42,0 72,20 59,40c-9,14 32,47 68,55c33,8 49,42 41,85c-7,32 -14,36 -30,20c-7,-7 -22,-2 -48,15c-20,14 -50,25 -66,25c-30,0 -40,13 -20,25c17,10 12,48 -5,41c-11,-4 -15,2 -15,23c0,24 -25,61 -42,61c-3,0 -13,-11 -21,-24z"/>
   <path id="svg_3" d="m8324,9968c-24,-11 -44,-48 -44,-81c0,-31 47,-97 69,-97c16,0 20,11 26,80c5,58 4,85 -5,95c-14,17 -17,17 -46,3z"/>
   <path id="svg_4" d="m5123,8975c-20,-21 -30,-40 -27,-50c4,-8 -1,-26 -10,-40c-16,-24 -15,-26 4,-48l21,-22l-25,-3c-20,-3 -26,-9 -26,-27c0,-36 38,-44 63,-14l19,24l-7,-42c-4,-27 -3,-43 3,-43c6,0 12,-10 14,-22c2,-13 16,-28 33,-37c17,-8 37,-18 45,-23c34,-19 42,-20 70,-8c28,12 44,50 20,50c-5,0 -7,20 -3,48c4,37 1,56 -13,76l-18,28l-18,-24l-18,-23l0,27c0,15 -7,31 -16,36c-14,8 -15,17 -8,48c4,22 8,42 8,46c1,9 -63,78 -72,78c-4,0 -22,-16 -39,-35z"/>
   <path id="svg_5" d="m7157,8997c-3,-8 -26,-24 -50,-35c-25,-12 -50,-29 -55,-38c-5,-9 -12,-15 -15,-15c-16,2 -17,0 -6,-20c8,-16 17,-20 37,-16c106,21 132,38 132,87c0,39 -32,66 -43,37z"/>
   <path id="svg_6" d="m6905,8869c-22,-10 -52,-19 -67,-19c-35,0 -37,-24 -5,-50c30,-25 20,-30 -36,-18c-53,11 -77,1 -77,-34c0,-28 47,-116 69,-128c32,-17 91,-13 98,8c17,47 59,101 83,104c17,2 26,10 28,25c3,18 0,21 -13,17c-27,-11 -95,16 -95,38c0,24 16,23 23,-2c6,-23 53,-37 76,-23c18,11 28,63 13,63c-5,0 -12,9 -15,20c-6,25 -29,24 -82,-1z"/>
   <path id="svg_7" d="m5381,8716c-7,-8 -19,-50 -27,-93c-8,-43 -17,-93 -20,-110c-6,-29 -4,-33 14,-33c12,0 29,11 38,25c9,14 25,25 36,25c31,0 87,39 94,65c11,45 -65,117 -88,84c-6,-10 -8,-5 -6,16c3,33 -21,46 -41,21z"/>
   <path id="svg_8" d="m7045,8590c-3,-10 -3,-35 0,-53l7,-35l37,15c21,8 51,26 67,39c28,23 28,24 10,39c-11,9 -40,15 -67,15c-39,0 -49,-4 -54,-20z"/>
   <path id="svg_9" d="m4165,8410c-16,-11 -40,-20 -52,-20c-12,0 -25,-5 -28,-10c-10,-16 -68,-8 -92,13c-21,19 -24,19 -57,3c-19,-9 -51,-16 -73,-16c-22,0 -48,-8 -63,-20c-14,-11 -39,-20 -57,-20c-22,0 -37,-8 -50,-25c-30,-41 -134,-115 -160,-115c-21,0 -24,-4 -20,-22c7,-25 -16,-47 -50,-48c-14,0 -23,-6 -23,-15c0,-9 -9,-15 -25,-15c-20,0 -27,-6 -31,-29c-8,-37 -62,-80 -75,-60c-7,11 -15,8 -34,-14c-30,-34 -32,-53 -5,-67c11,-6 20,-15 20,-20c0,-6 -9,-10 -20,-10c-15,0 -20,-7 -20,-24c0,-32 19,-44 35,-23c19,26 24,20 13,-16c-8,-28 -6,-38 13,-69c13,-21 31,-37 40,-38c9,0 28,-9 42,-20c14,-11 29,-20 34,-20c6,0 8,44 5,105c-5,103 -4,106 24,146c16,23 44,52 64,64c19,12 41,30 49,39c7,9 17,16 22,16c13,0 132,89 142,105c9,17 64,45 87,45c9,0 24,8 34,19c21,23 112,46 236,61c86,10 98,14 127,42c42,41 51,68 27,85c-25,18 -44,16 -79,-7z"/>
   <path id="svg_10" d="m4140,7851c-14,-26 -13,-38 4,-44c30,-12 56,4 56,34c0,24 -4,29 -25,29c-14,0 -29,-8 -35,-19z"/>
  </g>
 </g>
</svg>